<svg height="20" viewBox="0 0 14 20" width="14" xmlns="http://www.w3.org/2000/svg"><g fill="none" fill-rule="evenodd" transform="translate(-3)"><path d="m0 0h20v20h-20z"/><path d="m10 0c-1.85692216-.0013278-3.63817113.73574369-4.95121372 2.04878628s-2.05011408 3.09429156-2.04878628 4.95121372c0 5.25 7 13 7 13s7-7.75 7-13c.0013278-1.85692216-.7357437-3.63817113-2.0487863-4.95121372s-3.0942915-2.05011408-4.9512137-2.04878628zm-2.5 6.999c0-1.38071187 1.11928813-2.5 2.5-2.5 1.3807119 0 2.5 1.11928813 2.5 2.5s-1.1192881 2.5-2.5 2.5c-1.38071187 0-2.5-1.11928813-2.5-2.5z" fill="#0087f2" fill-rule="nonzero"/></g></svg>